# Blender v2.77 (sub 0) OBJ File: 'pallet.blend'
# www.blender.org
o Plane.002_Plane.006
v -2.975000 -1.000000 0.725000
v -3.975000 -1.000000 0.725000
v -2.975000 -1.000000 -0.725000
v -3.975000 -1.000000 -0.725000
v -2.975000 -0.220000 0.725000
v -3.975000 -0.220000 0.725000
v -2.975000 -0.220000 -0.725000
v -3.975000 -0.220000 -0.725000
v 2.975000 -1.000000 0.725000
v 3.974999 -1.000000 0.725000
v 2.975000 -1.000000 -0.725000
v 3.974999 -1.000000 -0.725000
v 2.975000 -0.220000 0.725000
v 3.974999 -0.220000 0.725000
v 2.975000 -0.220000 -0.725000
v 3.974999 -0.220000 -0.725000
v 0.725000 -1.000000 0.725000
v -0.725000 -1.000000 0.725000
v 0.725000 -1.000000 -0.725000
v -0.725000 -1.000000 -0.725000
v 0.725000 -0.220000 0.725000
v -0.725000 -0.220000 0.725000
v 0.725000 -0.220000 -0.725000
v -0.725000 -0.220000 -0.725000
v 0.725000 -1.000000 -4.550000
v -0.725000 -1.000000 -4.550000
v 0.725000 -1.000000 -6.000000
v -0.725000 -1.000000 -6.000000
v 0.725000 -0.220000 -4.550000
v -0.725000 -0.220000 -4.550000
v 0.725000 -0.220000 -6.000000
v -0.725000 -0.220000 -6.000000
v 0.725000 -1.000000 6.000000
v -0.725000 -1.000000 6.000000
v 0.725000 -1.000000 4.550000
v -0.725000 -1.000000 4.550000
v 0.725000 -0.220000 6.000000
v -0.725000 -0.220000 6.000000
v 0.725000 -0.220000 4.550000
v -0.725000 -0.220000 4.550000
v -3.975000 -1.000000 -4.550000
v -2.975000 -1.000000 -6.000000
v -2.975000 -1.000000 -4.550000
v -3.975000 -0.220000 -4.550000
v -2.975000 -0.220000 -6.000000
v -2.975000 -0.220000 -4.550000
v 3.975000 -1.000000 -4.550000
v 2.975000 -1.000000 -6.000000
v 2.975000 -1.000000 -4.550000
v 3.975000 -0.220000 -4.550000
v 2.975000 -0.220000 -6.000000
v 2.975000 -0.220000 -4.550000
v -3.975000 -1.000000 4.550000
v -2.975000 -1.000000 6.000000
v -2.975000 -1.000000 4.550000
v -3.975000 -0.220000 4.550000
v -2.975000 -0.220000 6.000000
v -2.975000 -0.220000 4.550000
v 3.975000 -1.000000 4.550000
v 2.975000 -1.000000 6.000000
v 2.975000 -1.000000 4.550000
v 3.975000 -0.220000 4.550000
v 2.975000 -0.220000 6.000000
v 2.975000 -0.220000 4.550000
v -3.825000 -1.000000 6.000000
v -3.975000 -1.000000 5.850000
v -3.975000 -0.220000 5.850000
v -3.825000 -0.220000 6.000000
v 3.975000 -1.000000 5.850000
v 3.825000 -1.000000 6.000000
v 3.825000 -0.220000 6.000000
v 3.975000 -0.220000 5.850000
v 3.825000 -1.000000 -6.000000
v 3.975000 -1.000000 -5.850001
v 3.975000 -0.220000 -5.850001
v 3.825000 -0.220000 -6.000000
v -3.975000 -1.000000 -5.850001
v -3.825000 -1.000000 -6.000000
v -3.825000 -0.220000 -6.000000
v -3.975000 -0.220000 -5.850001
v -3.975000 -0.220000 4.545000
v 3.975000 -0.220000 4.545000
v -3.975000 0.000000 4.545000
v 3.975000 0.000000 4.545000
v -3.825000 -0.220000 5.995000
v -3.975000 -0.220000 5.845000
v -3.975000 0.000000 5.845000
v -3.825000 0.000000 5.995000
v 3.975000 -0.220000 5.845000
v 3.825000 -0.220000 5.995000
v 3.825000 0.000000 5.995000
v 3.975000 0.000000 5.845000
v -3.975000 -0.220000 0.720000
v -3.975000 -0.220000 -0.730000
v 3.975000 -0.220000 -0.730000
v 3.975000 -0.220000 0.720000
v -3.975000 0.000000 0.720000
v -3.975000 0.000000 -0.730000
v 3.975000 0.000000 -0.730000
v 3.975000 0.000000 0.720000
v -3.975000 -0.220000 -4.550000
v 3.975000 -0.220000 -4.550000
v -3.975000 0.000000 -4.550000
v 3.975000 0.000000 -4.550000
v 3.825000 -0.220000 -6.000000
v 3.975000 -0.220000 -5.850000
v 3.975000 0.000000 -5.850000
v 3.825000 0.000000 -6.000000
v -3.975000 -0.220000 -5.850000
v -3.825000 -0.220000 -6.000000
v -3.825000 0.000000 -6.000000
v -3.975000 0.000000 -5.850000
v 2.525000 0.000000 6.000000
v 2.525000 0.000000 -6.000000
v 2.525000 0.220000 6.000000
v 2.525000 0.220000 -6.000000
v 3.975000 0.000000 5.850000
v 3.825000 0.000000 6.000000
v 3.825000 0.220000 6.000000
v 3.975000 0.220000 5.850000
v 3.825000 0.000000 -6.000000
v 3.975000 0.000000 -5.850001
v 3.975000 0.220000 -5.850001
v 3.825000 0.220000 -6.000000
v -2.975000 -1.220000 6.000000
v -2.975000 -1.220000 -6.000000
v -2.975000 -1.000000 6.000000
v -2.975000 -1.000000 -6.000000
v -3.825000 -1.220000 6.000000
v -3.975000 -1.220000 5.850000
v -3.975000 -1.000000 5.850000
v -3.825000 -1.000000 6.000000
v -3.975000 -1.220000 -5.850001
v -3.825000 -1.220000 -6.000000
v -3.825000 -1.000000 -6.000000
v -3.975000 -1.000000 -5.850001
v 0.725000 -1.220000 6.000000
v -0.725000 -1.220000 6.000000
v 0.725000 -1.220000 -6.000000
v -0.725000 -1.220000 -6.000000
v 0.725000 -1.000000 6.000000
v -0.725000 -1.000000 6.000000
v 0.725000 -1.000000 -6.000000
v -0.725000 -1.000000 -6.000000
v -2.525000 0.000000 6.000000
v -2.525000 0.000000 -6.000000
v -2.525000 0.220000 6.000000
v -2.525000 0.220000 -6.000000
v -3.825000 0.000000 6.000000
v -3.975000 0.000000 5.850000
v -3.975000 0.220000 5.850000
v -3.825000 0.220000 6.000000
v -3.975000 0.000000 -5.850001
v -3.825000 0.000000 -6.000000
v -3.825000 0.220000 -6.000000
v -3.975000 0.220000 -5.850001
v -1.125000 0.000000 6.000000
v -2.125000 0.000000 6.000000
v -1.125000 0.000000 -6.000000
v -2.125000 0.000000 -6.000000
v -1.125000 0.220000 6.000000
v -2.125000 0.220000 6.000000
v -1.125000 0.220000 -6.000000
v -2.125000 0.220000 -6.000000
v 2.975000 -1.220000 6.000000
v 2.975000 -1.220000 -6.000000
v 2.975000 -1.000000 6.000000
v 2.975000 -1.000000 -6.000000
v 3.975000 -1.220000 5.850000
v 3.825000 -1.220000 6.000000
v 3.825000 -1.000000 6.000000
v 3.975000 -1.000000 5.850000
v 3.825000 -1.220000 -6.000000
v 3.975000 -1.220000 -5.850001
v 3.975000 -1.000000 -5.850001
v 3.825000 -1.000000 -6.000000
v 2.125000 0.000000 6.000000
v 1.125000 0.000000 6.000000
v 2.125000 0.000000 -6.000000
v 1.125000 0.000000 -6.000000
v 2.125000 0.220000 6.000000
v 1.125000 0.220000 6.000000
v 2.125000 0.220000 -6.000000
v 1.125000 0.220000 -6.000000
v 0.725000 0.000000 6.000000
v -0.725000 0.000000 6.000000
v 0.725000 0.000000 -6.000000
v -0.725000 0.000000 -6.000000
v 0.725000 0.220000 6.000000
v -0.725000 0.220000 6.000000
v 0.725000 0.220000 -6.000000
v -0.725000 0.220000 -6.000000
vt 1.0966 0.9705
vt 0.6862 0.9675
vt 1.0891 0.7873
vt 1.4370 0.9675
vt 1.0266 0.9706
vt 1.4291 0.7844
vt 0.9176 0.9688
vt 0.5073 0.7826
vt 0.9178 0.7856
vt 0.8103 0.9695
vt 0.3996 0.7894
vt 0.8101 0.7863
vt 1.5547 0.9652
vt 1.1597 0.9682
vt 1.1518 0.7851
vt 1.6621 0.9636
vt 1.2672 0.9665
vt 1.2592 0.7834
vt 1.0380 0.7317
vt 1.3976 0.5550
vt 1.4023 0.7273
vt 0.6354 0.3306
vt 0.2995 0.3587
vt 0.2995 0.3346
vt 0.6266 0.4839
vt 0.2991 0.5119
vt 0.2991 0.4878
vt 0.4379 0.0484
vt 0.4697 0.2333
vt 0.4384 0.2334
vt 0.4691 0.0270
vt 0.4378 0.0271
vt 0.2834 0.9717
vt -0.3206 0.9762
vt -0.3286 0.7931
vt 0.0793 0.2334
vt 0.1105 0.2120
vt 0.1106 0.2333
vt 0.0786 0.0271
vt 0.0792 0.2121
vt 1.1303 0.7277
vt 0.4668 0.7343
vt 1.1218 0.5508
vt 0.8617 0.1123
vt 0.8927 0.2334
vt 0.8614 0.2333
vt 0.9830 0.3443
vt 0.6627 0.3718
vt 0.6627 0.3482
vt 0.9913 0.4819
vt 0.6627 0.5094
vt 0.6627 0.4858
vt 0.5970 0.2119
vt 0.5657 0.2334
vt 0.5657 0.2120
vt 0.5653 0.0911
vt 0.8931 0.0911
vt 0.8930 0.1124
vt 0.1172 0.7496
vt 0.1088 0.5726
vt 0.7722 0.5661
vt -0.0729 0.8022
vt -0.6927 0.9807
vt -0.6925 0.7975
vt 0.1509 0.9741
vt -0.4689 0.7955
vt 0.1507 0.7909
vt 0.6354 0.4150
vt 0.2995 0.4432
vt 0.2995 0.4191
vt 0.1943 0.0271
vt 0.2263 0.2333
vt 0.1950 0.2334
vt 0.2263 0.0271
vt 0.2582 0.2333
vt 0.2269 0.2334
vt 0.9913 0.4544
vt 0.6627 0.4819
vt 0.6627 0.4583
vt 0.7149 0.9683
vt 0.0954 0.9730
vt 0.7070 0.7852
vt 0.4698 0.0484
vt 0.5017 0.2333
vt 0.4704 0.2334
vt 0.9874 0.3155
vt 0.6671 0.3429
vt 0.6670 0.3193
vt 0.9913 0.3718
vt 0.6627 0.3993
vt 0.6627 0.3757
vt 0.1420 0.2121
vt 0.1106 0.2333
vt 0.1106 0.2120
vt 0.1112 0.0270
vt 0.5010 0.0270
vt 0.5011 0.0483
vt 0.9899 0.7348
vt 0.9852 0.5624
vt 1.3495 0.5581
vt 0.1300 0.5787
vt -0.4166 0.7505
vt -0.4164 0.5722
vt 0.5359 0.7429
vt -0.1277 0.5724
vt 0.5357 0.5658
vt 0.6354 0.3587
vt 0.2995 0.3869
vt 0.2995 0.3628
vt 0.7133 0.0911
vt 0.7450 0.2333
vt 0.7137 0.2334
vt 0.6501 0.0910
vt 0.6809 0.2334
vt 0.6496 0.2333
vt 0.6301 0.4455
vt 0.2942 0.4736
vt 0.2942 0.4495
vt -0.0189 0.7469
vt 0.6361 0.5634
vt 0.6445 0.7404
vt 0.6354 0.3869
vt 0.2995 0.4150
vt 0.2995 0.3909
vt 0.9875 0.2784
vt 0.6672 0.3058
vt 0.6671 0.2822
vt 0.7451 0.1124
vt 0.7767 0.2333
vt 0.7454 0.2334
vt 0.7763 0.0910
vt 0.7450 0.0911
vt 0.9366 0.7459
vt 0.2898 0.7523
vt 0.2813 0.5753
vt 0.6183 0.2334
vt 0.6496 0.2119
vt 0.6496 0.2333
vt 0.6179 0.0911
vt 0.6183 0.2120
vt -0.3314 0.7418
vt 0.2149 0.5569
vt 0.2151 0.7352
vt 0.4081 0.7377
vt -0.2555 0.5672
vt 0.4079 0.5607
vt 0.6354 0.2743
vt 0.2995 0.3024
vt 0.2995 0.2783
vt 0.8931 0.0911
vt 0.9248 0.2333
vt 0.8935 0.2334
vt 0.5340 0.0910
vt 0.5649 0.2334
vt 0.5336 0.2333
vt 0.9913 0.3993
vt 0.6627 0.4268
vt 0.6627 0.4032
vt 1.4444 0.5541
vt 1.0800 0.7221
vt 1.0801 0.5497
vt 0.0110 0.9774
vt -0.6088 0.7988
vt 0.0108 0.7942
vt 0.6354 0.3024
vt 0.2995 0.3306
vt 0.2995 0.3065
vt 0.1432 0.0270
vt 0.1738 0.2334
vt 0.1425 0.2333
vt 0.4059 0.0271
vt 0.4378 0.2333
vt 0.4065 0.2334
vt 0.9913 0.4268
vt 0.6627 0.4544
vt 0.6627 0.4308
vt 0.6941 0.7843
vt 1.0968 0.8063
vt 0.6864 0.8032
vt 1.0341 0.7874
vt 1.4368 0.8033
vt 1.0264 0.8064
vt 0.5071 0.9658
vt 0.3999 0.9726
vt 1.5622 0.7820
vt 1.5624 0.9462
vt 1.1520 0.9493
vt 1.6697 0.7803
vt 1.6699 0.9445
vt 1.2594 0.9476
vt 1.4022 0.5728
vt 1.0379 0.5771
vt 1.0424 0.5593
vt 0.6354 0.3547
vt 0.6266 0.5080
vt 0.4692 0.0483
vt 0.2909 0.7884
vt 0.2912 0.9527
vt -0.3284 0.9573
vt 0.1099 0.0270
vt 0.4750 0.5572
vt 1.1301 0.5773
vt 0.4667 0.5838
vt 0.9831 0.3679
vt 0.9913 0.5055
vt 0.5970 0.2333
vt 0.5966 0.0910
vt 0.8618 0.0910
vt 0.7723 0.7166
vt 0.7641 0.7432
vt 0.1089 0.7231
vt -0.0731 0.9854
vt -0.4686 0.9787
vt 0.6354 0.4391
vt 0.2256 0.0270
vt 0.2576 0.0270
vt 0.9913 0.4779
vt 0.1029 0.7897
vt 0.7147 0.8041
vt 0.0952 0.8087
vt 0.9874 0.3390
vt 0.9913 0.3953
vt 0.1419 0.2334
vt 0.1425 0.0271
vt 0.4697 0.0271
vt 1.3496 0.7126
vt 1.3451 0.7305
vt 0.9854 0.7170
vt 0.1299 0.7570
vt -0.1275 0.7494
vt 0.6354 0.3828
vt 0.7446 0.0910
vt 0.6814 0.0911
vt 0.6301 0.4696
vt 0.6444 0.5899
vt -0.0191 0.5964
vt -0.0108 0.5698
vt 0.6354 0.4110
vt 0.9875 0.3020
vt 0.7764 0.1123
vt 0.9448 0.5688
vt 0.9449 0.7193
vt 0.2815 0.7258
vt 0.6492 0.0910
vt -0.3315 0.5635
vt -0.2554 0.7443
vt 0.6354 0.2984
vt 0.9244 0.0910
vt 0.5653 0.0911
vt 0.9913 0.4229
vt 1.4443 0.7264
vt -0.6085 0.9820
vt 0.6354 0.3265
vt 0.1745 0.0271
vt 0.4372 0.0270
vt 0.9913 0.4504
vt 0.4059 0.2333
vt 0.3740 0.0484
vt 0.4053 0.0483
vt 0.0118 0.4608
vt 0.2589 0.4370
vt 0.2589 0.4638
vt 0.3540 0.2333
vt 0.3221 0.0484
vt 0.3534 0.0483
vt 0.0165 0.5044
vt 0.0118 0.4777
vt 0.0165 0.4776
vt 0.2542 0.4748
vt 0.2589 0.5015
vt 0.2543 0.5016
vt 0.2902 0.2333
vt 0.2582 0.0271
vt 0.2895 0.0270
vt 0.0118 0.3019
vt 0.2589 0.2781
vt 0.2589 0.3049
vt 0.3221 0.2333
vt 0.2902 0.0271
vt 0.3215 0.0270
vt 0.0118 0.3346
vt 0.2589 0.3049
vt 0.2589 0.3316
vt 0.5022 0.0483
vt 0.5330 0.2334
vt 0.5017 0.2333
vt 0.0118 0.4231
vt 0.2589 0.3933
vt 0.2589 0.4201
vt 0.0118 0.3479
vt 0.0165 0.3748
vt 0.0118 0.3747
vt 0.7133 0.2333
vt 0.6814 0.0484
vt 0.7127 0.0483
vt 0.2543 0.3509
vt 0.2589 0.3777
vt 0.2542 0.3776
vt 0.3745 0.2334
vt 0.0118 0.4341
vt 0.3227 0.2334
vt 0.0118 0.5045
vt 0.2589 0.4747
vt 0.2589 0.2334
vt 0.0118 0.2751
vt 0.2908 0.2334
vt 0.0118 0.3078
vt 0.5336 0.0484
vt 0.0118 0.3963
vt 0.0165 0.3480
vt 0.6820 0.2334
vt 0.2589 0.3509
vt 0.7574 0.7511
vt 0.6348 0.5345
vt 0.7567 0.5342
vt 0.9886 0.7257
vt 0.8927 0.5698
vt 0.9883 0.5694
vt 0.9903 0.4692
vt 0.8954 0.3125
vt 0.9907 0.3129
vt 0.3862 0.2358
vt 0.2636 0.0095
vt 0.3855 0.0092
vt 0.0168 0.2362
vt 0.1380 0.0092
vt 0.1387 0.2358
vt 0.8996 0.2119
vt 0.9905 0.0552
vt 0.9908 0.2115
vt 0.1351 0.9432
vt 0.2575 0.7873
vt 0.2570 0.9436
vt 0.7592 0.2362
vt 0.8804 0.0092
vt 0.8811 0.2358
vt 0.5099 0.7511
vt 0.3873 0.5345
vt 0.5092 0.5342
vt 0.1387 0.7511
vt 0.0161 0.5345
vt 0.1380 0.5342
vt 0.5092 0.2362
vt 0.3880 0.0092
vt 0.5099 0.0095
vt 0.6336 0.2358
vt 0.5110 0.0095
vt 0.6329 0.0092
vt 0.8811 0.4929
vt 0.7585 0.2776
vt 0.8804 0.2772
vt 0.7574 0.2358
vt 0.6348 0.0095
vt 0.7567 0.0092
vt 0.6336 0.7511
vt 0.5110 0.5345
vt 0.6329 0.5342
vt 0.2624 0.4929
vt 0.1398 0.2776
vt 0.2617 0.2772
vt 0.6336 0.4929
vt 0.5110 0.2776
vt 0.6329 0.2772
vt 0.2624 0.7511
vt 0.1398 0.5345
vt 0.2617 0.5342
vt 0.1380 0.4932
vt 0.0168 0.2772
vt 0.1387 0.2776
vt 0.3862 0.7511
vt 0.2636 0.5345
vt 0.3855 0.5342
vt 0.6298 0.7873
vt 0.7523 0.9901
vt 0.6304 0.9905
vt 0.1398 0.0095
vt 0.2624 0.2358
vt 0.1405 0.2362
vt 0.8931 0.3184
vt 0.9887 0.4743
vt 0.8935 0.4747
vt 0.8804 0.5342
vt 0.7592 0.7515
vt 0.7585 0.5345
vt 0.3805 0.7869
vt 0.2591 0.9436
vt 0.2586 0.7873
vt 0.9862 0.3386
vt 0.8913 0.4718
vt 0.8910 0.3390
vt 0.7567 0.2772
vt 0.6355 0.4932
vt 0.6348 0.2776
vt 0.9865 0.5667
vt 0.8905 0.7226
vt 0.8909 0.5663
vt 0.9916 0.0613
vt 0.9006 0.1946
vt 0.9003 0.0617
vt 0.5061 0.7873
vt 0.6287 0.9901
vt 0.5068 0.9905
vt 0.3873 0.2776
vt 0.5099 0.4929
vt 0.3880 0.4932
vt 0.7634 0.8070
vt 0.8858 0.9629
vt 0.7639 0.9633
vt 0.3861 0.4705
vt 0.2642 0.4932
vt 0.2642 0.4709
vt 0.3855 0.2772
vt 0.2636 0.2776
vt 0.1337 0.9198
vt 0.0118 0.9436
vt 0.0117 0.9202
vt 0.0113 0.7873
vt 0.9862 0.3151
vt 0.8909 0.3155
vt 0.5043 0.7869
vt 0.3830 0.9905
vt 0.3824 0.7873
vt 0.9886 0.7045
vt 0.8930 0.7275
vt 0.8931 0.7041
vt 0.8934 0.5712
vt 0.6355 0.7515
vt 0.8931 0.7261
vt 0.8950 0.4688
vt 0.2642 0.2362
vt 0.0161 0.0095
vt 0.8992 0.0556
vt 0.1355 0.7869
vt 0.7585 0.0095
vt 0.3880 0.7515
vt 0.0168 0.7515
vt 0.3873 0.2358
vt 0.5117 0.2362
vt 0.7592 0.4932
vt 0.6355 0.2362
vt 0.5117 0.7515
vt 0.1405 0.4932
vt 0.5117 0.4932
vt 0.1405 0.7515
vt 0.0161 0.4929
vt 0.2642 0.7515
vt 0.7517 0.7869
vt 0.2617 0.0092
vt 0.9884 0.3180
vt 0.8811 0.7511
vt 0.3810 0.9432
vt 0.9866 0.4714
vt 0.7574 0.4929
vt 0.9861 0.7230
vt 0.9919 0.1942
vt 0.6280 0.7869
vt 0.5092 0.2772
vt 0.8853 0.8066
vt 0.3862 0.4929
vt 0.1337 0.9432
vt 0.1332 0.7869
vt 0.5049 0.9901
vt 0.9886 0.7279
vt 0.9889 0.5716
vn 0.0000 -1.0000 0.0000
vn 0.0000 1.0000 0.0000
vn -1.0000 0.0000 0.0000
vn 1.0000 0.0000 0.0000
vn 0.0000 0.0000 1.0000
vn 0.7071 0.0000 0.7071
vn 0.7071 0.0000 -0.7071
vn 0.0000 0.0000 -1.0000
vn -0.7071 0.0000 0.7071
vn -0.7071 0.0000 -0.7071
s off
f 81/1/1 82/2/1 85/3/1
f 84/4/2 83/5/2 91/6/2
f 94/7/1 96/8/1 93/9/1
f 99/10/2 97/11/2 100/12/2
f 110/13/1 105/14/1 102/15/1
f 108/16/2 111/17/2 103/18/2
f 114/19/1 117/20/1 113/21/1
f 113/22/3 116/23/3 114/24/3
f 122/25/4 120/26/4 117/27/4
f 118/28/5 115/29/5 113/30/5
f 120/31/6 118/28/6 117/32/6
f 120/33/2 123/34/2 116/35/2
f 122/36/7 124/37/7 123/38/7
f 114/39/8 124/37/8 121/40/8
f 127/41/2 128/42/2 131/43/2
f 134/44/8 128/45/8 126/46/8
f 130/47/3 136/48/3 133/49/3
f 126/50/4 127/51/4 125/52/4
f 132/53/9 130/54/9 129/55/9
f 125/56/5 132/53/5 129/55/5
f 134/44/10 136/57/10 135/58/10
f 133/59/1 126/60/1 125/61/1
f 140/62/1 137/63/1 138/64/1
f 141/65/2 144/66/2 142/67/2
f 138/68/3 144/69/3 140/70/3
f 137/71/5 142/72/5 138/73/5
f 140/74/8 143/75/8 139/76/8
f 139/77/4 141/78/4 137/79/4
f 147/80/2 148/81/2 151/82/2
f 154/83/8 148/84/8 146/85/8
f 150/86/3 156/87/3 153/88/3
f 146/89/4 147/90/4 145/91/4
f 152/92/9 150/93/9 149/94/9
f 145/95/5 152/92/5 149/94/5
f 154/83/10 156/96/10 155/97/10
f 153/98/1 146/99/1 145/100/1
f 160/101/1 157/102/1 158/103/1
f 161/104/2 164/105/2 162/106/2
f 158/107/3 164/108/3 160/109/3
f 157/110/5 162/111/5 158/112/5
f 160/113/8 163/114/8 159/115/8
f 159/116/4 161/117/4 157/118/4
f 166/119/1 169/120/1 165/121/1
f 165/122/3 168/123/3 166/124/3
f 174/125/4 172/126/4 169/127/4
f 170/128/5 167/129/5 165/130/5
f 172/131/6 170/128/6 169/132/6
f 172/133/2 175/134/2 168/135/2
f 174/136/7 176/137/7 175/138/7
f 166/139/8 176/137/8 173/140/8
f 180/141/1 177/142/1 178/143/1
f 181/144/2 184/145/2 182/146/2
f 178/147/3 184/148/3 180/149/3
f 177/150/5 182/151/5 178/152/5
f 180/153/8 183/154/8 179/155/8
f 179/156/4 181/157/4 177/158/4
f 188/159/1 185/160/1 186/161/1
f 189/162/2 192/163/2 190/164/2
f 186/165/3 192/166/3 188/167/3
f 185/168/5 190/169/5 186/170/5
f 188/171/8 191/172/8 187/173/8
f 187/174/4 189/175/4 185/176/4
f 90/177/1 85/3/1 82/2/1
f 86/178/1 81/1/1 85/3/1
f 82/2/1 89/179/1 90/177/1
f 88/180/2 91/6/2 83/5/2
f 92/181/2 84/4/2 91/6/2
f 83/5/2 87/182/2 88/180/2
f 94/7/1 95/183/1 96/8/1
f 99/10/2 98/184/2 97/11/2
f 102/15/1 101/185/1 110/13/1
f 109/186/1 110/13/1 101/185/1
f 105/14/1 106/187/1 102/15/1
f 103/18/2 104/188/2 108/16/2
f 107/189/2 108/16/2 104/188/2
f 111/17/2 112/190/2 103/18/2
f 118/191/1 113/21/1 117/20/1
f 114/19/1 121/192/1 122/193/1
f 122/193/1 117/20/1 114/19/1
f 113/22/3 115/194/3 116/23/3
f 122/25/4 123/195/4 120/26/4
f 118/28/5 119/196/5 115/29/5
f 120/31/6 119/196/6 118/28/6
f 116/35/2 115/197/2 120/33/2
f 119/198/2 120/33/2 115/197/2
f 123/34/2 124/199/2 116/35/2
f 122/36/7 121/40/7 124/37/7
f 114/39/8 116/200/8 124/37/8
f 136/201/2 131/43/2 128/42/2
f 132/202/2 127/41/2 131/43/2
f 128/42/2 135/203/2 136/201/2
f 134/44/8 135/58/8 128/45/8
f 130/47/3 131/204/3 136/48/3
f 126/50/4 128/205/4 127/51/4
f 132/53/9 131/206/9 130/54/9
f 125/56/5 127/207/5 132/53/5
f 134/44/10 133/208/10 136/57/10
f 125/61/1 129/209/1 130/210/1
f 130/210/1 133/59/1 125/61/1
f 134/211/1 126/60/1 133/59/1
f 140/62/1 139/212/1 137/63/1
f 141/65/2 143/213/2 144/66/2
f 138/68/3 142/214/3 144/69/3
f 137/71/5 141/215/5 142/72/5
f 140/74/8 144/216/8 143/75/8
f 139/77/4 143/217/4 141/78/4
f 156/218/2 151/82/2 148/81/2
f 152/219/2 147/80/2 151/82/2
f 148/81/2 155/220/2 156/218/2
f 154/83/8 155/97/8 148/84/8
f 150/86/3 151/221/3 156/87/3
f 146/89/4 148/222/4 147/90/4
f 152/92/9 151/223/9 150/93/9
f 145/95/5 147/224/5 152/92/5
f 154/83/10 153/225/10 156/96/10
f 145/100/1 149/226/1 150/227/1
f 150/227/1 153/98/1 145/100/1
f 154/228/1 146/99/1 153/98/1
f 160/101/1 159/229/1 157/102/1
f 161/104/2 163/230/2 164/105/2
f 158/107/3 162/231/3 164/108/3
f 157/110/5 161/232/5 162/111/5
f 160/113/8 164/233/8 163/114/8
f 159/116/4 163/234/4 161/117/4
f 170/235/1 165/121/1 169/120/1
f 166/119/1 173/236/1 174/237/1
f 174/237/1 169/120/1 166/119/1
f 165/122/3 167/238/3 168/123/3
f 174/125/4 175/239/4 172/126/4
f 170/128/5 171/240/5 167/129/5
f 172/131/6 171/240/6 170/128/6
f 168/135/2 167/241/2 172/133/2
f 171/242/2 172/133/2 167/241/2
f 175/134/2 176/243/2 168/135/2
f 174/136/7 173/140/7 176/137/7
f 166/139/8 168/244/8 176/137/8
f 180/141/1 179/245/1 177/142/1
f 181/144/2 183/246/2 184/145/2
f 178/147/3 182/247/3 184/148/3
f 177/150/5 181/248/5 182/151/5
f 180/153/8 184/249/8 183/154/8
f 179/156/4 183/250/4 181/157/4
f 188/159/1 187/251/1 185/160/1
f 189/162/2 191/252/2 192/163/2
f 186/165/3 190/253/3 192/166/3
f 185/168/5 189/254/5 190/169/5
f 188/171/8 192/255/8 191/172/8
f 187/174/4 191/256/4 189/175/4
f 92/257/4 82/258/4 84/259/4
f 84/260/8 81/261/8 83/262/8
f 83/263/3 86/264/3 87/265/3
f 88/266/9 86/267/9 85/268/9
f 90/269/6 92/270/6 91/271/6
f 88/266/5 90/269/5 91/271/5
f 98/272/3 93/273/3 97/274/3
f 99/275/8 94/276/8 98/277/8
f 100/278/4 95/279/4 99/280/4
f 97/281/5 96/282/5 100/283/5
f 112/284/3 101/285/3 103/286/3
f 103/287/5 102/288/5 104/289/5
f 106/290/7 108/291/7 107/292/7
f 104/293/4 106/294/4 107/295/4
f 110/296/10 112/297/10 111/298/10
f 108/291/8 110/296/8 111/298/8
f 92/257/4 89/299/4 82/258/4
f 84/260/8 82/300/8 81/261/8
f 83/263/3 81/301/3 86/264/3
f 88/266/9 87/302/9 86/267/9
f 90/269/6 89/303/6 92/270/6
f 88/266/5 85/268/5 90/269/5
f 98/272/3 94/304/3 93/273/3
f 99/275/8 95/305/8 94/276/8
f 100/278/4 96/306/4 95/279/4
f 97/281/5 93/307/5 96/282/5
f 112/284/3 109/308/3 101/285/3
f 103/287/5 101/309/5 102/288/5
f 106/290/7 105/310/7 108/291/7
f 104/293/4 102/311/4 106/294/4
f 110/296/10 109/312/10 112/297/10
f 108/291/8 105/310/8 110/296/8
f 2/313/3 8/314/3 4/315/3
f 1/316/5 6/317/5 2/318/5
f 4/319/8 7/320/8 3/321/8
f 3/322/4 5/323/4 1/324/4
f 16/325/4 10/326/4 12/327/4
f 14/328/5 9/329/5 10/330/5
f 15/331/8 12/332/8 11/333/8
f 13/334/3 11/335/3 9/336/3
f 18/337/3 24/338/3 20/339/3
f 17/340/5 22/341/5 18/342/5
f 20/343/8 23/344/8 19/345/8
f 19/346/4 21/347/4 17/348/4
f 26/349/3 32/350/3 28/351/3
f 25/352/5 30/353/5 26/354/5
f 28/355/8 31/356/8 27/357/8
f 27/358/4 29/359/4 25/360/4
f 34/361/3 40/362/3 36/363/3
f 33/364/5 38/365/5 34/366/5
f 36/367/8 39/368/8 35/369/8
f 35/370/4 37/371/4 33/372/4
f 80/373/3 41/374/3 44/375/3
f 46/376/4 42/377/4 45/378/4
f 44/379/5 43/380/5 46/381/5
f 48/382/3 52/383/3 51/384/3
f 49/385/5 50/386/5 52/387/5
f 73/388/8 51/389/8 76/390/8
f 54/391/4 58/392/4 57/393/4
f 55/394/8 56/395/8 58/396/8
f 65/397/5 57/398/5 68/399/5
f 72/400/4 59/401/4 62/402/4
f 64/403/3 60/404/3 63/405/3
f 62/406/8 61/407/8 64/408/8
f 66/409/9 68/410/9 67/411/9
f 53/412/3 67/411/3 56/413/3
f 70/414/6 72/415/6 71/416/6
f 63/417/5 70/414/5 71/416/5
f 74/418/7 76/390/7 75/419/7
f 47/420/4 75/421/4 50/422/4
f 78/423/10 80/424/10 79/425/10
f 45/426/8 78/423/8 79/425/8
f 2/313/3 6/427/3 8/314/3
f 1/316/5 5/428/5 6/317/5
f 4/319/8 8/429/8 7/320/8
f 3/322/4 7/430/4 5/323/4
f 16/325/4 14/431/4 10/326/4
f 14/328/5 13/432/5 9/329/5
f 15/331/8 16/433/8 12/332/8
f 13/334/3 15/434/3 11/335/3
f 18/337/3 22/435/3 24/338/3
f 17/340/5 21/436/5 22/341/5
f 20/343/8 24/437/8 23/344/8
f 19/346/4 23/438/4 21/347/4
f 26/349/3 30/439/3 32/350/3
f 25/352/5 29/440/5 30/353/5
f 28/355/8 32/441/8 31/356/8
f 27/358/4 31/442/4 29/359/4
f 34/361/3 38/443/3 40/362/3
f 33/364/5 37/444/5 38/365/5
f 36/367/8 40/445/8 39/368/8
f 35/370/4 39/446/4 37/371/4
f 80/373/3 77/447/3 41/374/3
f 46/376/4 43/448/4 42/377/4
f 44/379/5 41/449/5 43/380/5
f 48/382/3 49/450/3 52/383/3
f 49/385/5 47/451/5 50/386/5
f 73/388/8 48/452/8 51/389/8
f 54/391/4 55/453/4 58/392/4
f 55/394/8 53/454/8 56/395/8
f 65/397/5 54/455/5 57/398/5
f 72/400/4 69/456/4 59/401/4
f 64/403/3 61/457/3 60/404/3
f 62/406/8 59/458/8 61/407/8
f 66/409/9 65/459/9 68/410/9
f 53/412/3 66/409/3 67/411/3
f 70/414/6 69/460/6 72/415/6
f 63/417/5 60/461/5 70/414/5
f 74/418/7 73/388/7 76/390/7
f 47/420/4 74/462/4 75/421/4
f 78/423/10 77/463/10 80/424/10
f 45/426/8 42/464/8 78/423/8
