# Blender v2.77 (sub 0) OBJ File: 'Basic Temple.blend'
# www.blender.org
o Mesh.023_Cylinder009
v -32.495701 9.835195 37.300800
v -34.071499 9.835194 38.623100
v -36.004601 9.835194 39.326599
v -31.110001 9.835195 33.493500
v -38.061699 9.835194 39.326599
v -39.994701 9.835194 38.623100
v -42.599098 9.835195 35.519299
v -41.570499 9.835195 37.300800
v -42.956299 9.835195 33.493500
v -42.599098 9.835196 31.467602
v -39.994701 9.835196 28.363802
v -41.570499 9.835196 29.686102
v -38.061699 9.835196 27.660301
v -36.004601 9.835196 27.660301
v -32.495701 9.835196 29.686102
v -34.071499 9.835196 28.363802
v -31.467199 9.835196 31.467602
v -31.467199 9.835195 35.519299
v -31.467199 22.432394 31.467604
v -31.110001 22.432394 33.493504
v -32.495701 22.432394 29.686104
v -34.071499 22.432396 28.363804
v -36.004601 22.432396 27.660303
v -38.061699 22.432396 27.660303
v -39.994701 22.432396 28.363804
v -41.570499 22.432394 29.686104
v -42.599098 22.432394 31.467604
v -42.956299 22.432394 33.493504
v -42.599098 22.432394 35.519302
v -41.570499 22.432394 37.300804
v -39.994701 22.432394 38.623104
v -38.061699 22.432394 39.326603
v -36.004601 22.432394 39.326603
v -34.071499 22.432394 38.623104
v -32.495701 22.432394 37.300804
v -31.467199 22.432394 35.519302
v -31.467199 35.029495 31.467606
v -31.110001 35.029495 33.493504
v -32.495701 35.029495 29.686106
v -34.071499 35.029495 28.363806
v -36.004601 35.029495 27.660305
v -38.061699 35.029495 27.660305
v -39.994701 35.029495 28.363806
v -41.570499 35.029495 29.686106
v -42.599098 35.029495 31.467606
v -42.956299 35.029495 33.493504
v -42.599098 35.029491 35.519302
v -41.570499 35.029491 37.300804
v -39.994701 35.029491 38.623104
v -38.061699 35.029491 39.326603
v -36.004601 35.029491 39.326603
v -34.071499 35.029491 38.623104
v -32.495701 35.029491 37.300804
v -31.467199 35.029491 35.519302
v -31.467199 47.626698 31.467607
v -31.110001 47.626698 33.493507
v -32.495701 47.626698 29.686108
v -34.071499 47.626698 28.363808
v -36.004601 47.626698 27.660307
v -38.061699 47.626698 27.660307
v -39.994701 47.626698 28.363808
v -41.570499 47.626698 29.686108
v -42.599098 47.626698 31.467607
v -42.956299 47.626698 33.493507
v -42.599098 47.626694 35.519306
v -41.570499 47.626694 37.300808
v -39.994701 47.626694 38.623108
v -38.061699 47.626694 39.326607
v -36.004601 47.626694 39.326607
v -34.071499 47.626694 38.623108
v -32.495701 47.626694 37.300808
v -31.467199 47.626694 35.519306
v -31.467199 60.223896 31.467609
v -31.110001 60.223896 33.493511
v -32.495701 60.223896 29.686110
v -34.071499 60.223896 28.363810
v -36.004601 60.223896 27.660309
v -38.061699 60.223896 27.660309
v -39.994701 60.223896 28.363810
v -41.570499 60.223896 29.686110
v -42.599098 60.223896 31.467609
v -42.956299 60.223896 33.493511
v -42.599098 60.223892 35.519310
v -41.570499 60.223892 37.300812
v -39.994701 60.223892 38.623112
v -38.061699 60.223892 39.326611
v -36.004601 60.223892 39.326611
v -34.071499 60.223892 38.623112
v -32.495701 60.223892 37.300812
v -31.467199 60.223892 35.519310
v -31.467199 72.821091 31.467611
v -31.110001 72.821091 33.493511
v -32.495701 72.821091 29.686111
v -34.071499 72.821091 28.363811
v -36.004601 72.821091 27.660311
v -38.061699 72.821091 27.660311
v -39.994701 72.821091 28.363811
v -41.570499 72.821091 29.686111
v -42.599098 72.821091 31.467611
v -42.956299 72.821091 33.493511
v -42.599098 72.821091 35.519310
v -41.570499 72.821091 37.300812
v -39.994701 72.821091 38.623112
v -38.061699 72.821091 39.326611
v -36.004601 72.821091 39.326611
v -34.071499 72.821091 38.623112
v -32.495701 72.821091 37.300812
v -31.467199 72.821091 35.519310
vt 1.1538 -0.6279
vt 1.5303 -0.6279
vt -0.1029 -0.6279
vt 1.5335 -0.6279
vt 0.8432 -0.6279
vt 1.4076 -0.6279
vt 1.1679 -0.6279
vt 0.4727 -0.6279
vt -0.4714 -0.6279
vt 0.1011 -0.6279
vt -0.2268 -0.6279
vt -0.6032 -0.6279
vt -0.3546 -0.6279
vt -0.6064 -0.6279
vt -0.4805 -0.6279
vt -0.2288 -0.6279
vt 0.8260 -0.6279
vt -0.1029 -0.0678
vt -0.3546 -0.0678
vt -0.2288 -0.0678
vt -0.4805 -0.0678
vt 1.5335 -0.6279
vt 1.6593 -0.0678
vt 1.6593 -0.6279
vt 1.4076 -0.6279
vt 1.5335 -0.0678
vt 1.2817 -0.0678
vt 1.4076 -0.0678
vt 1.1558 -0.6279
vt 1.2817 -0.6279
vt 1.0300 -0.6279
vt 1.1558 -0.0678
vt 0.9041 -0.6279
vt 1.0300 -0.0678
vt 0.7782 -0.6279
vt 0.9041 -0.0678
vt 0.6524 -0.6279
vt 0.7782 -0.0678
vt 0.5265 -0.6279
vt 0.6524 -0.0678
vt 0.4006 -0.6279
vt 0.5265 -0.0678
vt 0.2747 -0.6279
vt 0.4006 -0.0678
vt 0.1489 -0.6279
vt 0.2747 -0.0678
vt 0.0230 -0.0678
vt 0.1489 -0.0678
vt 0.0230 -0.6279
vt -0.1029 0.4923
vt -0.2288 0.4923
vt -0.3546 0.4923
vt -0.6064 -0.0678
vt -0.4805 0.4923
vt 1.6593 0.4923
vt 1.5335 0.4923
vt 1.2817 0.4923
vt 1.4076 0.4923
vt 1.1558 0.4923
vt 0.9041 0.4923
vt 1.0300 0.4923
vt 0.7782 0.4923
vt 0.6524 0.4923
vt 0.5265 0.4923
vt 0.4006 0.4923
vt 0.2747 0.4923
vt 0.1489 0.4923
vt 0.0230 0.4923
vt -0.1029 1.0524
vt -0.2288 1.0524
vt -0.3546 1.0524
vt -0.6064 1.0524
vt -0.4805 1.0524
vt 1.6593 1.0524
vt 1.5335 1.0524
vt 1.4076 1.0524
vt 1.2817 1.0524
vt 1.1558 1.0524
vt 0.9041 1.0524
vt 1.0300 1.0524
vt 0.7782 1.0524
vt 0.5265 1.0524
vt 0.6524 1.0524
vt 0.4006 1.0524
vt 0.1489 1.0524
vt 0.2747 1.0524
vt 0.0230 1.0524
vt -0.2288 1.6125
vt -0.1029 1.6125
vt -0.4805 1.6125
vt -0.3546 1.6125
vt -0.6064 1.6125
vt 1.6593 1.6125
vt 1.5335 1.6125
vt 1.4076 1.6125
vt 1.2817 1.6125
vt 1.1558 1.6125
vt 0.9041 1.6125
vt 1.0300 1.6125
vt 0.7782 1.6125
vt 0.5265 1.6125
vt 0.6524 1.6125
vt 0.4006 1.6125
vt 0.1489 1.6125
vt 0.2747 1.6125
vt 0.0230 1.6125
vt -0.1029 2.1726
vt -0.2288 2.1726
vt -0.3546 2.1726
vt -0.6064 2.1726
vt -0.4805 2.1726
vt 1.6593 2.1726
vt 1.5335 2.1726
vt 1.4076 2.1726
vt 1.2817 2.1726
vt 1.1558 2.1726
vt 0.9041 2.1726
vt 1.0300 2.1726
vt 0.7782 2.1726
vt 0.6524 2.1726
vt 0.5265 2.1726
vt 0.4006 2.1726
vt 0.2747 2.1726
vt 0.1489 2.1726
vt 0.0230 2.1726
vt 1.1538 2.1726
vt -0.4714 2.1726
vt -0.6032 2.1726
vt -0.2268 2.1726
vt 0.8432 2.1726
vt 0.1011 2.1726
vt 0.4727 2.1726
vt 1.1679 2.1726
vt 1.5303 2.1726
vt 1.4076 2.1726
vt 1.5335 2.1726
vt 1.3984 -0.6279
vt -0.6064 0.4923
vt 1.3984 2.1726
vn 0.5687 -0.6700 0.4771
vn 0.1289 -0.6700 0.7310
vn 0.7423 -0.6700 0.0000
vn -0.1289 -0.6700 0.7310
vn -0.6976 -0.6700 0.2539
vn -0.3712 -0.6700 0.6429
vn -0.5687 -0.6700 0.4772
vn -0.7423 -0.6700 0.0000
vn -0.3712 -0.6700 -0.6429
vn -0.6976 -0.6700 -0.2539
vn -0.5687 -0.6700 -0.4772
vn -0.1289 -0.6700 -0.7310
vn 0.5687 -0.6700 -0.4771
vn 0.1289 -0.6700 -0.7310
vn 0.3711 -0.6700 -0.6429
vn 0.6976 -0.6700 -0.2539
vn 0.6976 -0.6700 0.2539
vn 1.0000 0.0000 0.0000
vn 0.7660 0.0000 -0.6428
vn 0.9397 0.0000 -0.3420
vn 0.5000 0.0000 -0.8660
vn 0.1736 0.0000 -0.9848
vn -0.1736 0.0000 -0.9848
vn -0.7660 0.0000 -0.6428
vn -0.5000 0.0000 -0.8660
vn -0.9397 0.0000 -0.3420
vn -1.0000 0.0000 0.0000
vn -0.9397 0.0000 0.3420
vn -0.7660 0.0000 0.6428
vn -0.5000 0.0000 0.8660
vn -0.1736 0.0000 0.9848
vn 0.3711 -0.6700 0.6429
vn 0.1736 0.0000 0.9848
vn 0.5000 0.0000 0.8660
vn 0.9397 0.0000 0.3420
vn 0.7660 0.0000 0.6428
vn 0.7423 0.6700 0.0000
vn 0.6976 0.6700 -0.2539
vn 0.5687 0.6700 -0.4771
vn 0.1289 0.6700 -0.7310
vn 0.3711 0.6700 -0.6429
vn -0.1289 0.6700 -0.7310
vn -0.3712 0.6700 -0.6429
vn -0.5687 0.6700 -0.4772
vn -0.6976 0.6700 -0.2539
vn -0.6976 0.6700 0.2539
vn -0.7423 0.6700 0.0000
vn -0.5687 0.6700 0.4772
vn -0.3712 0.6700 0.6429
vn -0.1289 0.6700 0.7310
vn 0.1289 0.6700 0.7310
vn 0.3711 0.6700 0.6429
vn 0.5687 0.6700 0.4771
vn 0.6976 0.6700 0.2539
s 1
f 1/1/1 3/2/2 4/3/3
f 5/4/4 7/5/5 3/2/2
f 6/6/6 8/7/7 7/5/5
f 9/8/8 11/9/9 7/5/5
f 10/10/10 12/11/11 11/9/9
f 13/12/12 15/13/13 11/9/9
f 14/14/14 16/15/15 15/13/13
f 11/9/9 3/2/2 7/5/5
f 17/16/16 3/2/2 15/13/13
f 18/17/17 1/1/1 4/3/3
f 17/16/16 20/18/18 4/3/3
f 17/16/16 21/19/19 19/20/20
f 16/15/15 21/19/19 15/13/13
f 14/14/14 22/21/21 16/15/15
f 13/22/12 23/23/22 14/24/14
f 11/25/9 24/26/23 13/22/12
f 11/25/9 26/27/24 25/28/25
f 10/29/10 26/27/24 12/30/11
f 9/31/8 27/32/26 10/29/10
f 7/33/5 28/34/27 9/31/8
f 8/35/7 29/36/28 7/33/5
f 6/37/6 30/38/29 8/35/7
f 5/39/4 31/40/30 6/37/6
f 3/41/2 32/42/31 5/39/4
f 2/43/32 33/44/33 3/41/2
f 1/45/1 34/46/34 2/43/32
f 1/45/1 36/47/35 35/48/36
f 4/3/3 36/47/35 18/49/17
f 19/20/20 38/50/18 20/18/18
f 21/19/19 37/51/20 19/20/20
f 22/21/21 39/52/19 21/19/19
f 23/53/22 40/54/21 22/21/21
f 24/26/23 41/55/22 23/23/22
f 25/28/25 42/56/23 24/26/23
f 25/28/25 44/57/24 43/58/25
f 27/32/26 44/57/24 26/27/24
f 28/34/27 45/59/26 27/32/26
f 28/34/27 47/60/28 46/61/27
f 30/38/29 47/60/28 29/36/28
f 31/40/30 48/62/29 30/38/29
f 32/42/31 49/63/30 31/40/30
f 33/44/33 50/64/31 32/42/31
f 34/46/34 51/65/33 33/44/33
f 35/48/36 52/66/34 34/46/34
f 36/47/35 53/67/36 35/48/36
f 20/18/18 54/68/35 36/47/35
f 37/51/20 56/69/18 38/50/18
f 39/52/19 55/70/20 37/51/20
f 40/54/21 57/71/19 39/52/19
f 40/54/21 59/72/22 58/73/21
f 42/56/23 59/74/22 41/55/22
f 43/58/25 60/75/23 42/56/23
f 44/57/24 61/76/25 43/58/25
f 45/59/26 62/77/24 44/57/24
f 46/61/27 63/78/26 45/59/26
f 46/61/27 65/79/28 64/80/27
f 48/62/29 65/79/28 47/60/28
f 49/63/30 66/81/29 48/62/29
f 49/63/30 68/82/31 67/83/30
f 51/65/33 68/82/31 50/64/31
f 52/66/34 69/84/33 51/65/33
f 52/66/34 71/85/36 70/86/34
f 54/68/35 71/85/36 53/67/36
f 38/50/18 72/87/35 54/68/35
f 56/69/18 73/88/20 74/89/18
f 57/71/19 73/88/20 55/70/20
f 57/71/19 76/90/21 75/91/19
f 58/73/21 77/92/22 76/90/21
f 60/75/23 77/93/22 59/74/22
f 61/76/25 78/94/23 60/75/23
f 62/77/24 79/95/25 61/76/25
f 63/78/26 80/96/24 62/77/24
f 64/80/27 81/97/26 63/78/26
f 64/80/27 83/98/28 82/99/27
f 66/81/29 83/98/28 65/79/28
f 67/83/30 84/100/29 66/81/29
f 67/83/30 86/101/31 85/102/30
f 69/84/33 86/101/31 68/82/31
f 70/86/34 87/103/33 69/84/33
f 70/86/34 89/104/36 88/105/34
f 71/85/36 90/106/35 89/104/36
f 56/69/18 90/106/35 72/87/35
f 73/88/20 92/107/37 74/89/18
f 75/91/19 91/108/38 73/88/20
f 76/90/21 93/109/39 75/91/19
f 76/90/21 95/110/40 94/111/41
f 78/94/23 95/112/40 77/93/22
f 79/95/25 96/113/42 78/94/23
f 80/96/24 97/114/43 79/95/25
f 81/97/26 98/115/44 80/96/24
f 82/99/27 99/116/45 81/97/26
f 82/99/27 101/117/46 100/118/47
f 84/100/29 101/117/46 83/98/28
f 85/102/30 102/119/48 84/100/29
f 86/101/31 103/120/49 85/102/30
f 87/103/33 104/121/50 86/101/31
f 88/105/34 105/122/51 87/103/33
f 89/104/36 106/123/52 88/105/34
f 90/106/35 107/124/53 89/104/36
f 74/89/18 108/125/54 90/106/35
f 92/107/37 93/109/39 107/126/53
f 93/109/39 95/110/40 97/127/43
f 95/110/40 96/128/42 97/127/43
f 98/129/44 101/130/46 97/127/43
f 99/131/45 100/132/47 101/130/46
f 102/133/48 105/134/51 101/130/46
f 103/135/49 104/136/50 105/134/51
f 97/127/43 105/134/51 93/109/39
f 105/134/51 107/126/53 93/109/39
f 108/125/54 92/107/37 107/126/53
f 1/1/1 2/137/32 3/2/2
f 5/4/4 6/6/6 7/5/5
f 9/8/8 10/10/10 11/9/9
f 13/12/12 14/14/14 15/13/13
f 11/9/9 15/13/13 3/2/2
f 17/16/16 4/3/3 3/2/2
f 17/16/16 19/20/20 20/18/18
f 17/16/16 15/13/13 21/19/19
f 16/15/15 22/21/21 21/19/19
f 14/14/14 23/53/22 22/21/21
f 13/22/12 24/26/23 23/23/22
f 11/25/9 25/28/25 24/26/23
f 11/25/9 12/30/11 26/27/24
f 10/29/10 27/32/26 26/27/24
f 9/31/8 28/34/27 27/32/26
f 7/33/5 29/36/28 28/34/27
f 8/35/7 30/38/29 29/36/28
f 6/37/6 31/40/30 30/38/29
f 5/39/4 32/42/31 31/40/30
f 3/41/2 33/44/33 32/42/31
f 2/43/32 34/46/34 33/44/33
f 1/45/1 35/48/36 34/46/34
f 1/45/1 18/49/17 36/47/35
f 4/3/3 20/18/18 36/47/35
f 19/20/20 37/51/20 38/50/18
f 21/19/19 39/52/19 37/51/20
f 22/21/21 40/54/21 39/52/19
f 23/53/22 41/138/22 40/54/21
f 24/26/23 42/56/23 41/55/22
f 25/28/25 43/58/25 42/56/23
f 25/28/25 26/27/24 44/57/24
f 27/32/26 45/59/26 44/57/24
f 28/34/27 46/61/27 45/59/26
f 28/34/27 29/36/28 47/60/28
f 30/38/29 48/62/29 47/60/28
f 31/40/30 49/63/30 48/62/29
f 32/42/31 50/64/31 49/63/30
f 33/44/33 51/65/33 50/64/31
f 34/46/34 52/66/34 51/65/33
f 35/48/36 53/67/36 52/66/34
f 36/47/35 54/68/35 53/67/36
f 20/18/18 38/50/18 54/68/35
f 37/51/20 55/70/20 56/69/18
f 39/52/19 57/71/19 55/70/20
f 40/54/21 58/73/21 57/71/19
f 40/54/21 41/138/22 59/72/22
f 42/56/23 60/75/23 59/74/22
f 43/58/25 61/76/25 60/75/23
f 44/57/24 62/77/24 61/76/25
f 45/59/26 63/78/26 62/77/24
f 46/61/27 64/80/27 63/78/26
f 46/61/27 47/60/28 65/79/28
f 48/62/29 66/81/29 65/79/28
f 49/63/30 67/83/30 66/81/29
f 49/63/30 50/64/31 68/82/31
f 51/65/33 69/84/33 68/82/31
f 52/66/34 70/86/34 69/84/33
f 52/66/34 53/67/36 71/85/36
f 54/68/35 72/87/35 71/85/36
f 38/50/18 56/69/18 72/87/35
f 56/69/18 55/70/20 73/88/20
f 57/71/19 75/91/19 73/88/20
f 57/71/19 58/73/21 76/90/21
f 58/73/21 59/72/22 77/92/22
f 60/75/23 78/94/23 77/93/22
f 61/76/25 79/95/25 78/94/23
f 62/77/24 80/96/24 79/95/25
f 63/78/26 81/97/26 80/96/24
f 64/80/27 82/99/27 81/97/26
f 64/80/27 65/79/28 83/98/28
f 66/81/29 84/100/29 83/98/28
f 67/83/30 85/102/30 84/100/29
f 67/83/30 68/82/31 86/101/31
f 69/84/33 87/103/33 86/101/31
f 70/86/34 88/105/34 87/103/33
f 70/86/34 71/85/36 89/104/36
f 71/85/36 72/87/35 90/106/35
f 56/69/18 74/89/18 90/106/35
f 73/88/20 91/108/38 92/107/37
f 75/91/19 93/109/39 91/108/38
f 76/90/21 94/111/41 93/109/39
f 76/90/21 77/92/22 95/110/40
f 78/94/23 96/113/42 95/112/40
f 79/95/25 97/114/43 96/113/42
f 80/96/24 98/115/44 97/114/43
f 81/97/26 99/116/45 98/115/44
f 82/99/27 100/118/47 99/116/45
f 82/99/27 83/98/28 101/117/46
f 84/100/29 102/119/48 101/117/46
f 85/102/30 103/120/49 102/119/48
f 86/101/31 104/121/50 103/120/49
f 87/103/33 105/122/51 104/121/50
f 88/105/34 106/123/52 105/122/51
f 89/104/36 107/124/53 106/123/52
f 90/106/35 108/125/54 107/124/53
f 74/89/18 92/107/37 108/125/54
f 92/107/37 91/108/38 93/109/39
f 93/109/39 94/111/41 95/110/40
f 98/129/44 99/131/45 101/130/46
f 102/133/48 103/135/49 105/134/51
f 97/127/43 101/130/46 105/134/51
f 105/134/51 106/139/52 107/126/53